<svg width="172" height="32" viewBox="0 0 172 32" fill="none" xmlns="http://www.w3.org/2000/svg">
<path d="M9.65039 0.00390625H14.2734L23.2207 25H19.2656L16.541 17.4766H9.5625L10.8984 13.7852H15.2051L11.9707 4.85547L4.6582 25H0.703125L9.65039 0.00390625ZM25.875 11.9043C25.875 10.9551 26.1094 10.0938 26.5781 9.32031C27.0586 8.54688 27.6914 7.93164 28.4766 7.47461C29.2734 7.01758 30.1523 6.78906 31.1133 6.78906H41.8008V10.498H31.1133C30.6914 10.498 30.3281 10.6387 30.0234 10.9199C29.7305 11.1895 29.584 11.5176 29.584 11.9043V12.3438C29.584 12.7422 29.7305 13.082 30.0234 13.3633C30.3281 13.6445 30.6914 13.7852 31.1133 13.7852H37.7578C38.7188 13.7852 39.5918 14.0195 40.377 14.4883C41.1738 14.9453 41.8066 15.5605 42.2754 16.334C42.7441 17.1074 42.9785 17.9688 42.9785 18.918V19.8672C42.9785 20.8047 42.7441 21.666 42.2754 22.4512C41.8066 23.2246 41.1738 23.8457 40.377 24.3145C39.5918 24.7715 38.7188 25 37.7578 25H26.7012V21.291H37.7578C38.1797 21.291 38.5371 21.1504 38.8301 20.8691C39.1348 20.5879 39.2871 20.248 39.2871 19.8496V18.9355C39.2871 18.5254 39.1348 18.1797 38.8301 17.8984C38.5371 17.6172 38.1797 17.4766 37.7578 17.4766H31.1133C30.1523 17.4766 29.2734 17.248 28.4766 16.791C27.6914 16.3223 27.0586 15.7012 26.5781 14.9277C26.1094 14.1426 25.875 13.2812 25.875 12.3438V11.9043ZM47.0391 0.00390625H50.748V25H47.0391V0.00390625ZM68.3789 0.00390625L71.6484 18.8477L76.1484 10.6562H79.6465L84.1465 18.8477L87.416 0.00390625H91.125L86.7832 25H83.4434L77.8887 14.9453L72.3516 25H68.9941L64.6523 0.00390625H68.3789ZM94.2891 13.3281C94.2891 12.1211 94.582 11.0254 95.168 10.041C95.7656 9.05664 96.5625 8.27148 97.5586 7.68555C98.5547 7.08789 99.6562 6.78906 100.863 6.78906H111.023V25H107.314V10.498H100.863C100.078 10.498 99.4043 10.7793 98.8418 11.3418C98.2793 11.8926 97.998 12.5664 97.998 13.3633V18.3906C97.998 19.1875 98.2793 19.873 98.8418 20.4473C99.4043 21.0098 100.078 21.291 100.863 21.291H105.205V25H100.863C99.6562 25 98.5547 24.707 97.5586 24.1211C96.5625 23.5234 95.7656 22.7266 95.168 21.7305C94.582 20.7344 94.2891 19.6328 94.2891 18.4258V13.3281ZM117.773 6.78906L122.502 19.4102L127.336 6.78906H131.432L121.764 31.8555H117.703L120.533 24.4023L113.836 6.78906H117.773ZM133.91 10.4805C133.91 9.46094 134.273 8.59375 135 7.87891C135.738 7.15234 136.623 6.78906 137.654 6.78906H144.07C145.277 6.78906 146.379 7.08789 147.375 7.68555C148.371 8.27148 149.162 9.0625 149.748 10.0586C150.346 11.0547 150.645 12.1562 150.645 13.3633V25H146.936V13.416C146.936 12.5957 146.654 11.8984 146.092 11.3242C145.541 10.75 144.867 10.4629 144.07 10.4629H137.619V25H133.91V10.4805ZM154.863 10.5508C154.863 9.50781 155.244 8.62305 156.006 7.89648C156.768 7.1582 157.682 6.78906 158.748 6.78906H166.342C167.314 6.78906 168.193 7.0293 168.979 7.50977C169.775 7.97852 170.408 8.61719 170.877 9.42578C171.357 10.2227 171.598 11.1074 171.598 12.0801V12.5898C171.598 13.5508 171.357 14.4297 170.877 15.2266C170.408 16.0117 169.775 16.6445 168.979 17.125C168.193 17.5938 167.314 17.8281 166.342 17.8281H160.682V14.1367H166.377C166.799 14.1367 167.156 13.9844 167.449 13.6797C167.754 13.375 167.906 13.0059 167.906 12.5723V12.0801C167.906 11.6348 167.754 11.2598 167.449 10.9551C167.156 10.6504 166.799 10.498 166.377 10.498H158.572V19.8496C158.572 20.248 158.707 20.5879 158.977 20.8691C159.246 21.1504 159.574 21.291 159.961 21.291H170.314V25H159.961C159.023 25 158.168 24.7715 157.395 24.3145C156.621 23.8457 156.006 23.2246 155.549 22.4512C155.092 21.666 154.863 20.8047 154.863 19.8672V10.5508Z" fill="#F0F8FF"/>
</svg>
